<svg width="300" height="300" viewBox="0 0 300 300" fill="none" xmlns="http://www.w3.org/2000/svg">
<path d="M147.013 93H136.388L136.455 84.6328H147.013C149.426 84.6328 151.463 84.0794 153.123 82.9727C154.783 81.8438 156.045 80.1836 156.908 77.9922C157.771 75.7786 158.203 73.0892 158.203 69.9238V67.6992C158.203 65.3086 157.959 63.2057 157.472 61.3906C156.985 59.5534 156.266 58.015 155.314 56.7754C154.362 55.5358 153.178 54.6061 151.761 53.9863C150.367 53.3665 148.762 53.0566 146.947 53.0566H136.189V44.6562H146.947C150.223 44.6562 153.211 45.2096 155.912 46.3164C158.634 47.4232 160.981 49.0059 162.951 51.0645C164.943 53.123 166.481 55.5579 167.566 58.3691C168.651 61.1803 169.193 64.3125 169.193 67.7656V69.9238C169.193 73.3548 168.651 76.487 167.566 79.3203C166.481 82.1315 164.943 84.5664 162.951 86.625C160.981 88.6615 158.646 90.2331 155.945 91.3398C153.244 92.4466 150.267 93 147.013 93ZM142.531 44.6562V93H131.707V44.6562H142.531ZM155.148 124.656V173H144.357V124.656H155.148ZM140.273 204.656L149.736 226.172L159.265 204.656H170.953L155.248 235.535V253H144.258V235.535L128.519 204.656H140.273Z" fill="#00A8CC"/>
<path d="M82.2138 173H71.5888L71.6552 164.633H82.2138C84.6266 164.633 86.663 164.079 88.3232 162.973C89.9834 161.844 91.2451 160.184 92.1084 157.992C92.9716 155.779 93.4033 153.089 93.4033 149.924V147.699C93.4033 145.309 93.1598 143.206 92.6728 141.391C92.1858 139.553 91.4664 138.015 90.5146 136.775C89.5628 135.536 88.3785 134.606 86.9619 133.986C85.5673 133.367 83.9625 133.057 82.1474 133.057H71.3896V124.656H82.1474C85.4235 124.656 88.4117 125.21 91.1123 126.316C93.8349 127.423 96.1813 129.006 98.1513 131.064C100.144 133.123 101.682 135.558 102.767 138.369C103.851 141.18 104.394 144.312 104.394 147.766V149.924C104.394 153.355 103.851 156.487 102.767 159.32C101.682 162.132 100.144 164.566 98.1513 166.625C96.1813 168.661 93.846 170.233 91.1455 171.34C88.4449 172.447 85.4677 173 82.2138 173ZM77.7314 124.656V173H66.9072V124.656H77.7314ZM154.416 124.656V173H143.625V124.656H154.416ZM215.13 133.854L202.646 173H191.091L208.987 124.656H216.292L215.13 133.854ZM225.489 173L212.972 133.854L211.677 124.656H219.081L237.044 173H225.489ZM224.958 155.004V163.371H199.757V155.004H224.958Z" fill="#00A8CC"/>
<path d="M56.5488 71.6387L59.9766 81.6582C53.0039 83.8262 48.1992 87.7227 45.5625 93.3477C42.9258 98.9141 41.6074 105.301 41.6074 112.508V130.701C41.6074 136.561 40.4062 141.893 38.0039 146.697C35.6602 151.443 31.9102 155.223 26.7539 158.035C21.6562 160.848 14.9473 162.254 6.62695 162.254V151.531C13.248 151.531 17.9941 149.656 20.8652 145.906C23.7949 142.156 25.2598 137.088 25.2598 130.701V112.508C25.2598 106.355 26.1973 100.613 28.0723 95.2812C30.0059 89.8906 33.2285 85.1738 37.7402 81.1309C42.3105 77.0293 48.5801 73.8652 56.5488 71.6387ZM59.9766 234.061L56.5488 244.168C48.5801 241.883 42.3105 238.719 37.7402 234.676C33.2285 230.633 30.0059 225.916 28.0723 220.525C26.1973 215.193 25.2598 209.451 25.2598 203.299V185.193C25.2598 180.916 24.6152 177.225 23.3262 174.119C22.0371 171.014 20.0156 168.611 17.2617 166.912C14.5664 165.154 11.0215 164.275 6.62695 164.275V153.553C14.9473 153.553 21.6562 154.959 26.7539 157.771C31.9102 160.584 35.6602 164.393 38.0039 169.197C40.4062 173.943 41.6074 179.275 41.6074 185.193V203.299C41.6074 208.104 42.1641 212.557 43.2773 216.658C44.4492 220.76 46.3535 224.305 48.9902 227.293C51.6855 230.34 55.3477 232.596 59.9766 234.061Z" fill="#00A8CC"/>
<path d="M239.76 81.6582L243.188 71.6387C251.215 73.8652 257.484 77.0293 261.996 81.1309C266.566 85.1738 269.789 89.8906 271.664 95.2812C273.539 100.613 274.477 106.355 274.477 112.508V130.701C274.477 134.92 275.121 138.611 276.41 141.775C277.699 144.881 279.691 147.283 282.387 148.982C285.141 150.682 288.715 151.531 293.109 151.531V161.463C284.848 161.463 278.139 160.145 272.982 157.508C267.826 154.812 264.047 151.15 261.645 146.521C259.301 141.834 258.129 136.561 258.129 130.701V112.508C258.129 107.703 257.572 103.25 256.459 99.1484C255.346 94.9883 253.441 91.4141 250.746 88.4258C248.109 85.3789 244.447 83.123 239.76 81.6582ZM243.188 244.168L239.76 234.061C244.389 232.596 248.021 230.34 250.658 227.293C253.354 224.305 255.258 220.76 256.371 216.658C257.543 212.557 258.129 208.104 258.129 203.299V185.193C258.129 179.275 259.301 174.002 261.645 169.373C264.047 164.744 267.826 161.111 272.982 158.475C278.139 155.779 284.848 154.432 293.109 154.432V164.275C286.547 164.275 281.801 166.18 278.871 169.988C275.941 173.738 274.477 178.807 274.477 185.193V203.299C274.477 209.451 273.539 215.193 271.664 220.525C269.789 225.916 266.566 230.633 261.996 234.676C257.484 238.719 251.215 241.883 243.188 244.168Z" fill="#00A8CC"/>
</svg>
