<svg width="47" height="47" viewBox="0 0 47 47" fill="none" xmlns="http://www.w3.org/2000/svg">
<path d="M23.032 14.57H21.3675L21.378 13.2592H23.032C23.4101 13.2592 23.7292 13.1725 23.9893 12.9991C24.2493 12.8222 24.4471 12.5621 24.5823 12.2188C24.7175 11.872 24.7851 11.4507 24.7851 10.9547V10.6062C24.7851 10.2317 24.7469 9.90224 24.6706 9.61788C24.5943 9.33005 24.4817 9.08903 24.3325 8.89483C24.1834 8.70062 23.9979 8.55497 23.7759 8.45787C23.5575 8.36077 23.306 8.31222 23.0217 8.31222H21.3363V6.99615H23.0217C23.5349 6.99615 24.0031 7.08285 24.4262 7.25625C24.8527 7.42965 25.2204 7.67761 25.529 8.00012C25.8411 8.32262 26.082 8.70409 26.252 9.14451C26.422 9.58493 26.5069 10.0756 26.5069 10.6166V10.9547C26.5069 11.4923 26.422 11.983 26.252 12.4269C26.082 12.8673 25.8411 13.2488 25.529 13.5713C25.2204 13.8903 24.8545 14.1365 24.4314 14.3099C24.0082 14.4833 23.5418 14.57 23.032 14.57ZM22.3299 6.99615V14.57H20.6341V6.99615H22.3299ZM24.3065 19.5295V27.1033H22.6159V19.5295H24.3065ZM21.9761 32.0628L23.4586 35.4336L24.9515 32.0628H26.7826L24.3222 36.9005V39.6367H22.6004V36.9005L20.1346 32.0628H21.9761Z" fill="white"/>
<path d="M12.8802 27.1033H11.2156L11.226 25.7925H12.8802C13.2582 25.7925 13.5773 25.7057 13.8373 25.5324C14.0974 25.3555 14.2951 25.0955 14.4304 24.7521C14.5656 24.4054 14.6332 23.9839 14.6332 23.4881V23.1395C14.6332 22.7651 14.5951 22.4356 14.5188 22.1512C14.4425 21.8633 14.3298 21.6223 14.1807 21.4281C14.0316 21.234 13.846 21.0883 13.6241 20.9911C13.4056 20.8941 13.1542 20.8456 12.8698 20.8456H11.1844V19.5294H12.8698C13.3831 19.5294 13.8512 19.6162 14.2743 19.7895C14.7008 19.9629 15.0685 20.2109 15.3771 20.5333C15.6893 20.8559 15.9302 21.2374 16.1002 21.6778C16.27 22.1182 16.3551 22.6089 16.3551 23.15V23.4881C16.3551 24.0256 16.27 24.5163 16.1002 24.9601C15.9302 25.4007 15.6893 25.782 15.3771 26.1046C15.0685 26.4235 14.7026 26.6698 14.2795 26.8432C13.8564 27.0167 13.39 27.1033 12.8802 27.1033ZM12.178 19.5294V27.1033H10.4822V19.5294H12.178ZM24.1919 19.5294V27.1033H22.5013V19.5294H24.1919ZM33.7038 20.9704L31.7479 27.1033H29.9376L32.7413 19.5294H33.8858L33.7038 20.9704ZM35.3267 27.1033L33.3657 20.9704L33.1628 19.5294H34.3227L37.1369 27.1033H35.3267ZM35.2435 24.2839V25.5948H31.2953V24.2839H35.2435Z" fill="white"/>
<path d="M8.8593 11.2234L9.39632 12.7931C8.30393 13.1328 7.55119 13.7432 7.13811 14.6245C6.72503 15.4965 6.51848 16.4971 6.51848 17.6262V20.4765C6.51848 21.3945 6.33029 22.2299 5.95393 22.9825C5.58675 23.7261 4.99925 24.3183 4.19143 24.7588C3.39279 25.1995 2.34173 25.4198 1.03821 25.4198V23.7398C2.07551 23.7398 2.81906 23.4461 3.26887 22.8586C3.72785 22.2711 3.95735 21.4771 3.95735 20.4765V17.6262C3.95735 16.6623 4.10423 15.7627 4.39798 14.9274C4.70091 14.0829 5.20578 13.3439 5.91262 12.7105C6.62863 12.0679 7.61087 11.5722 8.8593 11.2234ZM9.39632 36.6695L8.8593 38.253C7.61087 37.895 6.62863 37.3993 5.91262 36.7659C5.20578 36.1325 4.70091 35.3935 4.39798 34.5489C4.10423 33.7136 3.95735 32.814 3.95735 31.8502V29.0136C3.95735 28.3435 3.85637 27.7652 3.65442 27.2786C3.45247 26.7922 3.13576 26.4157 2.70432 26.1495C2.28206 25.8741 1.72669 25.7364 1.03821 25.7364V24.0566C2.34173 24.0566 3.39279 24.2769 4.19143 24.7174C4.99925 25.1582 5.58675 25.7549 5.95393 26.5075C6.33029 27.2511 6.51848 28.0864 6.51848 29.0136V31.8502C6.51848 32.603 6.6057 33.3006 6.7801 33.9431C6.96369 34.5857 7.26203 35.1411 7.67512 35.6092C8.09738 36.0866 8.67113 36.44 9.39632 36.6695Z" fill="white"/>
<path d="M37.5624 12.7931L38.0994 11.2234C39.357 11.5722 40.3391 12.0679 41.046 12.7105C41.762 13.3439 42.2669 14.0829 42.5607 14.9274C42.8544 15.7627 43.0014 16.6623 43.0014 17.6262V20.4765C43.0014 21.1375 43.1023 21.7157 43.3042 22.2114C43.5062 22.698 43.8182 23.0743 44.2406 23.3405C44.6721 23.6068 45.232 23.7398 45.9204 23.7398V25.2959C44.6262 25.2959 43.5751 25.0894 42.7672 24.6762C41.9594 24.2539 41.3673 23.6802 40.991 22.9549C40.6238 22.2207 40.4402 21.3945 40.4402 20.4765V17.6262C40.4402 16.8735 40.3529 16.1758 40.1786 15.5332C40.0042 14.8815 39.7057 14.3215 39.2835 13.8534C38.8704 13.376 38.2967 13.0226 37.5624 12.7931ZM38.0994 38.253L37.5624 36.6695C38.2876 36.44 38.8566 36.0866 39.2697 35.6092C39.6921 35.1411 39.9904 34.5857 40.1648 33.9431C40.3484 33.3006 40.4402 32.603 40.4402 31.8502V29.0136C40.4402 28.0864 40.6238 27.2603 40.991 26.5351C41.3673 25.8099 41.9594 25.2407 42.7672 24.8277C43.5751 24.4054 44.6262 24.1943 45.9204 24.1943V25.7364C44.8923 25.7364 44.1488 26.0349 43.6898 26.6314C43.2307 27.2189 43.0014 28.0131 43.0014 29.0136V31.8502C43.0014 32.814 42.8544 33.7136 42.5607 34.5489C42.2669 35.3935 41.762 36.1325 41.046 36.7659C40.3391 37.3993 39.357 37.895 38.0994 38.253Z" fill="white"/>
</svg>
